<svg width="582" height="582" viewBox="0 0 582 582" fill="none" xmlns="http://www.w3.org/2000/svg">
<rect width="582" height="582" fill="#19323C"/>
<path d="M404.5 206.417H367.937L329.663 168.143C328.352 166.827 326.794 165.784 325.079 165.073C323.363 164.362 321.524 163.997 319.667 164H263.111C261.254 163.997 259.415 164.362 257.699 165.073C255.984 165.784 254.426 166.827 253.115 168.143L214.841 206.417H178.278C162.683 206.417 150 219.099 150 234.694V390.222C150 405.818 162.683 418.5 178.278 418.5H404.5C420.095 418.5 432.778 405.818 432.778 390.222V234.694C432.778 219.099 420.095 206.417 404.5 206.417ZM291.389 376.083C253.073 376.083 220.694 343.705 220.694 305.389C220.694 267.058 253.073 234.694 291.389 234.694C329.705 234.694 362.083 267.058 362.083 305.389C362.083 343.705 329.705 376.083 291.389 376.083Z" fill="#F3F7F0"/>
<path d="M305.528 262.972H277.25V291.25H248.972V319.528H277.25V347.806H305.528V319.528H333.806V291.25H305.528V262.972Z" fill="#F3F7F0"/>
</svg>
