<svg width="186" height="41" viewBox="0 0 186 41" fill="none" xmlns="http://www.w3.org/2000/svg">
<rect x="19.3921" y="37.6256" width="166.562" height="2.37437" rx="1.18719" fill="#A93F55"/>
<path d="M20.5795 38.8128C10.3183 38.8128 2 30.5875 2 20.4411C2 10.2947 9.36856 2.0694 19.6297 2.0694M7.33535 18.6444C7.33535 18.6444 6.47147 22.541 8.19951 26.2048C9.92754 29.8687 13.5462 31.813 13.5462 31.813M10.8597 18.4647C10.8597 18.4647 10.128 21.6869 11.5532 24.7086C12.9784 27.7303 15.9821 29.3254 15.9821 29.3254M14.3899 18.6418C14.3899 18.6418 13.8688 20.9979 14.914 23.2138C15.9591 25.4297 18.1463 26.6063 18.1463 26.6063" stroke="#A93F55" stroke-width="2.5" stroke-linecap="round"/>
<path d="M30.5777 28.7063H44.8513V35.0138H22.3779V1H30.5777V28.7063Z" fill="#A93F55"/>
<path d="M68.0957 28.6596H56.859L54.8966 35.0138H46.1362L58.6111 1H66.3202L78.8885 35.0138H70.0814L68.0957 28.6596ZM58.8213 22.3287H66.1333L62.4656 10.5313L58.8213 22.3287Z" fill="#A93F55"/>
<path d="M81.3882 35.0138V1H93.606C97.9824 1 101.307 1.80207 103.581 3.4062C105.871 5.01033 107.015 7.33866 107.015 10.3912C107.015 12.1511 106.61 13.6539 105.801 14.8999C104.991 16.1458 103.799 17.0647 102.226 17.6565C104.002 18.1237 105.364 18.9959 106.315 20.2729C107.265 21.55 107.74 23.1074 107.74 24.9452C107.74 28.278 106.68 30.7855 104.562 32.4675C102.46 34.1339 99.3373 34.9827 95.1946 35.0138H81.3882ZM89.5879 20.5533V28.7063H94.961C96.4405 28.7063 97.5774 28.3715 98.3717 27.7018C99.166 27.0165 99.5631 26.0587 99.5631 24.8284C99.5631 21.9939 98.1537 20.5688 95.3348 20.5533H89.5879ZM89.5879 15.1802H93.863C95.654 15.1646 96.9311 14.8376 97.6942 14.199C98.4574 13.5605 98.8389 12.6183 98.8389 11.3723C98.8389 9.93953 98.4262 8.91164 97.6008 8.28868C96.7754 7.65014 95.4438 7.33087 93.606 7.33087H89.5879V15.1802Z" fill="#A93F55"/>
<path d="M133.367 20.6H120.471V28.7063H135.703V35.0138H112.272V1H135.75V7.33087H120.471V14.5027H133.367V20.6Z" fill="#A93F55"/>
<path d="M147.243 28.7063H161.517V35.0138H139.043V1H147.243V28.7063Z" fill="#A93F55"/>
<path d="M170.885 15.7642L177.145 1H185.999L175.043 22.7959V35.0138H166.726V22.7959L155.793 1H164.601L170.885 15.7642Z" fill="#A93F55"/>
</svg>
